<?xml version="1.0" standalone="no"?>
<!DOCTYPE svg PUBLIC "-//W3C//DTD SVG 20010904//EN"
 "http://www.w3.org/TR/2001/REC-SVG-20010904/DTD/svg10.dtd">
<svg version="1.0" xmlns="http://www.w3.org/2000/svg"
 width="154.000000pt" height="154.000000pt" viewBox="0 0 154.000000 154.000000"
 preserveAspectRatio="xMidYMid meet">
<metadata>
Created by potrace 1.11, written by Peter Selinger 2001-2013
</metadata>
<g transform="translate(0.000000,154.000000) scale(0.100000,-0.100000)"
fill="#000000" stroke="none">
<path d="M1402 1212 c-15 -16 -54 -65 -87 -110 l-60 -81 -90 -21 c-138 -33
-145 -34 -145 -15 0 9 9 29 19 44 23 32 15 52 -18 46 -24 -4 -48 -29 -104
-103 -36 -48 -33 -48 -167 -16 -107 25 -410 25 -480 0 -8 -3 -26 -8 -40 -10
-91 -18 -184 -75 -218 -135 -12 -21 -11 -27 5 -50 32 -44 108 -75 193 -79 78
-4 237 19 423 60 53 12 100 19 103 15 6 -6 -35 -64 -78 -111 -25 -27 -23 -32
19 -49 l37 -14 76 108 c71 103 78 110 125 123 47 14 51 14 71 -5 11 -11 27
-30 34 -44 11 -21 9 -29 -21 -72 -69 -96 -111 -184 -114 -241 -3 -33 27 -62
62 -62 73 0 136 104 138 230 l2 77 77 102 c42 55 89 107 104 115 37 19 170 46
227 46 49 0 56 11 27 46 -26 31 -60 46 -104 46 -52 -1 -50 15 12 98 28 37 50
73 50 79 0 22 -52 11 -78 -17z m-704 -279 c29 -3 52 -11 52 -17 0 -15 -465
-128 -532 -129 -102 -2 -138 26 -84 65 33 24 165 67 234 77 66 9 253 11 330 4z
m423 -80 c-5 -10 -23 -33 -38 -52 l-29 -34 -23 32 c-26 36 -24 41 27 57 58 18
75 17 63 -3z m-75 -255 c-9 -54 -34 -106 -57 -119 -17 -9 -19 -6 -19 25 0 19
6 41 14 48 7 8 17 25 21 38 19 59 50 66 41 8z"/>
</g>
</svg>
